<svg id="Layer_1" data-name="Layer 1" xmlns="http://www.w3.org/2000/svg" viewBox="0 0 575 118"><defs><style>.cls-1{fill:#fff;}</style></defs><title>Artboard 1</title><path class="cls-1" d="M22.6,21.45c0-5,4.6-7.9,9.3-7.9,12.3,0,18.5,9.9,23.6,19.7l7.6-1.9L58.5,3.95c-2.4,1.9-4.8,4.2-8.1,4.2-2.7,0-10.4-3.6-18.2-3.6-17.6,0-28.4,9.9-28.4,27.8,0,30.3,44.8,24.3,44.8,41.7,0,7.7-6.3,9.7-12.8,9.7-13.7,0-20.7-11.5-26.2-22.2l-7.7,2.1,5.2,29.2c2.4-1.9,4.8-4.2,8.1-4.2,2.7,0,11.6,4.2,21,4.2,21.3,0,31.2-13.3,31.2-29.2C67.4,30.55,22.6,37.35,22.6,21.45Z"/><path class="cls-1" d="M131.1,81.55a2,2,0,0,1-2.2-1.9V59.75c0-23.1-19.6-28.9-35.8-28.9-7.9,0-16.9,1.9-16.9,11.6,0,5.8,5,8.3,10.1,8.3,6.5,0,10.8-5.8,12-12,6,.8,8.2,7.1,8.6,12.6-14,2.7-34.3,7.1-34.3,25.1,0,9.9,8.3,16.1,18,16.1,7.2,0,12.8-1.6,18.4-6.3a12.43,12.43,0,0,0,11.1,6.3c5.7,0,11.5-1.5,15.8-5.1l-2.7-6.5A2.78,2.78,0,0,1,131.1,81.55Zm-24.2-5.1c0,2.5-3.3,4.1-5.7,4.1-4.3,0-5.4-5.3-5.4-8.8,0-6.6,3.4-11.2,11.1-12.7Z"/><path class="cls-1" d="M235.5,50.55c0-10.9-8-19.7-18.6-19.7-8.5,0-13.5,3.7-18.4,7.5-3.6-4.3-8.7-7.5-14.5-7.5-8,0-12.9,4.3-17,7.9-1.1-2.5-1.6-5.7-3.5-7.9l-23.3,6.5v7c2.8.1,5.7,1.1,5.7,3.4v34.3l-5.7.8v8h31.4v-8l-3.7-.8V55.35c0-7.4,1.4-12.3,5.6-12.3,5.3,0,6.3,5,6.3,11v28.2l-3.7.8v8h29.5v-8l-3.7-.8v-28c0-6.8,1.4-11.2,5.6-11.2,4.8,0,6.3,5.7,6.3,9.5v29.6l-3.7.8v8h31.4V83l-5.7-.8V50.55Z"/><path class="cls-1" d="M272.9,30.85c-16.9,0-29.2,12.9-29.2,32.4,0,15.2,11,29.5,29.4,29.5a31.11,31.11,0,0,0,26.2-14.1l-5.9-7c-2.9,4.5-6.8,7.7-12.4,7.7-6.9,0-12.9-5.3-13.9-13.5l32.3-8C298.4,43.25,288.9,30.85,272.9,30.85Zm-1.7,25.1L265.5,57v-3.4c0-7.1,1.2-14.5,6.2-14.5,4.6,0,6.2,5.9,6.2,9.8C277.9,53.45,274.4,55.35,271.2,55.95Z"/><path class="cls-1" d="M356.9,6.35H315.5v8.5l7,.8v65.8l-7,1V91H355v-8.5l-7-1V53.95h8.9c15.9,0,33.8-4.5,33.8-23.8S372.8,6.35,356.9,6.35ZM352.3,45H348V16.25a10,10,0,0,1,4.3-.8c8.8,0,11.7,6.3,11.7,14.7S361.1,45,352.3,45Z"/><path class="cls-1" d="M447.1,81.55a2,2,0,0,1-2.2-1.9V59.75c0-23.1-19.6-28.9-35.8-28.9-7.9,0-16.9,1.9-16.9,11.6,0,5.8,5,8.3,10.1,8.3,6.5,0,10.8-5.8,12-12,6,.8,8.2,7.1,8.6,12.6-14,2.7-34.3,7.1-34.3,25.1,0,9.9,8.3,16.1,18,16.1,7.2,0,12.8-1.6,18.4-6.3a12.43,12.43,0,0,0,11.1,6.3c5.7,0,11.5-1.5,15.8-5.1l-2.7-6.5A2.66,2.66,0,0,1,447.1,81.55ZM423,76.45c0,2.5-3.3,4.1-5.7,4.1-4.3,0-5.4-5.3-5.4-8.8,0-6.6,3.4-11.2,11.1-12.7Z"/><path class="cls-1" d="M497.3,27.25c2.4,2.5,5.3,4.5,8.8,4.5,5.4,0,8.8-3.4,8.8-9.1s-3.4-9.1-8.6-9.1c-5.8,0-12.4,3-22.5,17.3-12.1,0-27.4,5.6-27.4,20.1,0,9.3,4.1,14.4,12.4,17.8-11.6,8.8-14.9,12.2-14.9,16.2,0,3.6,5.2,7,8.3,7.4v.4c-3.7,2.4-8.7,6-8.7,11.1,0,4.7,3.3,9.4,26.7,9.4,28.6,0,34.4-8.5,34.4-18.7,0-8.5-4.3-15.3-16.3-16.8-9.4-1.1-23.9-.8-23.9-2.3,0-1.8,2.3-3.7,3.7-3.7s2.5.2,4.2.2c12.9,0,27.5-6,27.5-21,0-10.9-8.9-15.8-18.1-18.8C493.6,29.45,496.1,27.25,497.3,27.25Zm-5.5,68.6c4,.2,6,1.2,6,3.5,0,4-6.4,4.8-12.9,4.8-10.9,0-15.1-1.3-15.1-5.1a5.13,5.13,0,0,1,2.8-4.7C476.2,94.85,484.3,95.55,491.8,95.85Zm-8.5-32c-4.8,0-4.8-8.9-4.8-12.2,0-7.1,0-12.8,4.8-12.8s4.8,5.7,4.8,12.8C488.1,54.95,488.1,63.85,483.3,63.85Z"/><path class="cls-1" d="M554.3,79.35c-6.9,0-12.9-5.3-13.9-13.5l32.3-8c-.9-14.6-10.4-27-26.4-27-16.9,0-29.2,12.9-29.2,32.4,0,15.2,11,29.5,29.4,29.5a31.11,31.11,0,0,0,26.2-14.1l-5.9-7C563.8,76.05,560,79.35,554.3,79.35ZM539,53.65c0-7.1,1.2-14.5,6.2-14.5,4.6,0,6.2,5.9,6.2,9.8,0,4.6-3.5,6.4-6.6,7L539.1,57v-3.4Z"/></svg>