<?xml version="1.0" encoding="utf-8"?>
<!-- Generator: Adobe Illustrator 21.0.2, SVG Export Plug-In . SVG Version: 6.00 Build 0)  -->
<svg version="1.1" id="Layer_1" xmlns="http://www.w3.org/2000/svg" xmlns:xlink="http://www.w3.org/1999/xlink" x="0px" y="0px"
	 viewBox="0 0 576.9 139.3" style="enable-background:new 0 0 576.9 139.3;" xml:space="preserve">
<style type="text/css">
	.st0{fill:#FFFFFF;}
</style>
<g>
	<path class="st0" d="M24.8,33.2c0-5,4.6-7.9,9.3-7.9c12.3,0,18.5,9.9,23.6,19.7l7.6-1.9l-4.6-27.4c-2.4,1.9-4.8,4.2-8.1,4.2
		c-2.7,0-10.4-3.6-18.2-3.6C16.8,16.3,6,26.2,6,44.1c0,30.3,44.8,24.3,44.8,41.7c0,7.7-6.3,9.7-12.8,9.7
		c-13.7,0-20.7-11.5-26.2-22.2l-7.7,2.1l5.2,29.2c2.4-1.9,4.8-4.2,8.1-4.2c2.7,0,11.6,4.2,21,4.2c21.3,0,31.2-13.3,31.2-29.2
		C69.6,42.3,24.8,49.1,24.8,33.2z"/>
	<path class="st0" d="M133.3,93.3c-1.1,0-2.2-0.6-2.2-1.9V71.5c0-23.1-19.6-28.9-35.8-28.9c-7.9,0-16.9,1.9-16.9,11.6
		c0,5.8,5,8.3,10.1,8.3c6.5,0,10.8-5.8,12-12c6,0.8,8.2,7.1,8.6,12.6c-14,2.7-34.3,7.1-34.3,25.1c0,9.9,8.3,16.1,18,16.1
		c7.2,0,12.8-1.6,18.4-6.3c2.2,4.1,6.6,6.3,11.1,6.3c5.7,0,11.5-1.5,15.8-5.1l-2.7-6.5C135,93.2,134.1,93.3,133.3,93.3z M109.1,88.2
		c0,2.5-3.3,4.1-5.7,4.1c-4.3,0-5.4-5.3-5.4-8.8c0-6.6,3.4-11.2,11.1-12.7V88.2z"/>
	<path class="st0" d="M237.7,62.3c0-10.9-8-19.7-18.6-19.7c-8.5,0-13.5,3.7-18.4,7.5c-3.6-4.3-8.7-7.5-14.5-7.5
		c-8,0-12.9,4.3-17,7.9c-1.1-2.5-1.6-5.7-3.5-7.9l-23.3,6.5v7c2.8,0.1,5.7,1.1,5.7,3.4v34.3l-5.7,0.8v8h31.4v-8l-3.7-0.8V67.1
		c0-7.4,1.4-12.3,5.6-12.3c5.3,0,6.3,5,6.3,11V94l-3.7,0.8v8h29.5v-8l-3.7-0.8V66c0-6.8,1.4-11.2,5.6-11.2c4.8,0,6.3,5.7,6.3,9.5
		v29.6l-3.7,0.8v8h31.4v-8l-5.7-0.8V62.3H237.7z"/>
	<path class="st0" d="M275.1,42.6c-16.9,0-29.2,12.9-29.2,32.4c0,15.2,11,29.5,29.4,29.5c10.5,0,20.1-5,26.2-14.1l-5.9-7
		c-2.9,4.5-6.8,7.7-12.4,7.7c-6.9,0-12.9-5.3-13.9-13.5l32.3-8C300.6,55,291.1,42.6,275.1,42.6z M273.4,67.7l-5.7,1.1v-3.4
		c0-7.1,1.2-14.5,6.2-14.5c4.6,0,6.2,5.9,6.2,9.8C280.1,65.2,276.6,67.1,273.4,67.7z"/>
	<path class="st0" d="M359.1,18.1h-41.4v8.5l7,0.8v65.8l-7,1v8.5h39.5v-8.5l-7-1V65.7h8.9c15.9,0,33.8-4.5,33.8-23.8
		S375,18.1,359.1,18.1z M354.5,56.7h-4.3V28c1.2-0.6,2.8-0.8,4.3-0.8c8.8,0,11.7,6.3,11.7,14.7S363.3,56.7,354.5,56.7z"/>
	<path class="st0" d="M449.3,93.3c-1.1,0-2.2-0.6-2.2-1.9V71.5c0-23.1-19.6-28.9-35.8-28.9c-7.9,0-16.9,1.9-16.9,11.6
		c0,5.8,5,8.3,10.1,8.3c6.5,0,10.8-5.8,12-12c6,0.8,8.2,7.1,8.6,12.6c-14,2.7-34.3,7.1-34.3,25.1c0,9.9,8.3,16.1,18,16.1
		c7.2,0,12.8-1.6,18.4-6.3c2.2,4.1,6.6,6.3,11.1,6.3c5.7,0,11.5-1.5,15.8-5.1l-2.7-6.5C451,93.2,450.2,93.3,449.3,93.3z M425.2,88.2
		c0,2.5-3.3,4.1-5.7,4.1c-4.3,0-5.4-5.3-5.4-8.8c0-6.6,3.4-11.2,11.1-12.7V88.2z"/>
	<path class="st0" d="M499.5,39c2.4,2.5,5.3,4.5,8.8,4.5c5.4,0,8.8-3.4,8.8-9.1s-3.4-9.1-8.6-9.1c-5.8,0-12.4,3-22.5,17.3
		c-12.1,0-27.4,5.6-27.4,20.1c0,9.3,4.1,14.4,12.4,17.8c-11.6,8.8-14.9,12.2-14.9,16.2c0,3.6,5.2,7,8.3,7.4v0.4
		c-3.7,2.4-8.7,6-8.7,11.1c0,4.7,3.3,9.4,26.7,9.4c28.6,0,34.4-8.5,34.4-18.7c0-8.5-4.3-15.3-16.3-16.8c-9.4-1.1-23.9-0.8-23.9-2.3
		c0-1.8,2.3-3.7,3.7-3.7c1.3,0,2.5,0.2,4.2,0.2c12.9,0,27.5-6,27.5-21c0-10.9-8.9-15.8-18.1-18.8C495.8,41.2,498.3,39,499.5,39z
		 M494,107.6c4,0.2,6,1.2,6,3.5c0,4-6.4,4.8-12.9,4.8c-10.9,0-15.1-1.3-15.1-5.1c0-2.2,1-3.6,2.8-4.7
		C478.4,106.6,486.5,107.3,494,107.6z M485.5,75.6c-4.8,0-4.8-8.9-4.8-12.2c0-7.1,0-12.8,4.8-12.8s4.8,5.7,4.8,12.8
		C490.3,66.7,490.3,75.6,485.5,75.6z"/>
	<path class="st0" d="M556.5,91.1c-6.9,0-12.9-5.3-13.9-13.5l32.3-8c-0.9-14.6-10.4-27-26.4-27c-16.9,0-29.2,12.9-29.2,32.4
		c0,15.2,11,29.5,29.4,29.5c10.5,0,20.1-5,26.2-14.1l-5.9-7C566,87.8,562.2,91.1,556.5,91.1z M541.2,65.4c0-7.1,1.2-14.5,6.2-14.5
		c4.6,0,6.2,5.9,6.2,9.8c0,4.6-3.5,6.4-6.6,7l-5.7,1.1v-3.4H541.2z"/>
</g>
</svg>
